<?xml version="1.0" standalone="no"?>
<!DOCTYPE svg PUBLIC "-//W3C//DTD SVG 20010904//EN"
 "http://www.w3.org/TR/2001/REC-SVG-20010904/DTD/svg10.dtd">
<svg version="1.0" xmlns="http://www.w3.org/2000/svg"
 width="512.000000pt" height="512.000000pt" viewBox="0 0 512.000000 512.000000"
 preserveAspectRatio="xMidYMid meet">
<metadata>
Created by potrace 1.11, written by Peter Selinger 2001-2013
</metadata>
<g transform="translate(0.000000,512.000000) scale(0.100000,-0.100000)"
fill="#000000" stroke="none">
<path d="M130 4898 c0 -832 2 -4257 3 -4270 1 -10 8 -18 17 -18 20 -1 53 -47
44 -62 -4 -7 -3 -8 4 -4 7 4 12 1 12 -6 0 -9 3 -9 10 2 6 9 10 10 10 3 0 -18
123 -133 143 -133 20 0 22 -11 5 -28 -7 -7 -8 -12 -2 -12 5 0 15 9 22 20 7 11
16 20 21 20 14 0 20 -37 7 -51 -8 -9 -6 -9 7 0 11 9 15 21 12 32 -4 11 -2 19
4 19 11 0 14 -8 13 -50 -1 -20 0 -21 5 -5 3 11 10 26 17 34 8 12 8 13 -2 7 -6
-4 -12 -3 -12 1 0 5 22 10 50 10 27 1 50 -2 50 -6 0 -5 -16 -7 -34 -6 -19 1
-33 -2 -31 -6 3 -4 -2 -9 -10 -13 -8 -3 -15 -11 -14 -18 0 -10 2 -10 6 0 2 6
9 12 14 12 6 0 7 -5 3 -12 -4 -7 -3 -8 5 -4 6 4 9 11 6 16 -3 4 2 11 11 14 12
5 15 2 10 -10 -6 -15 -4 -15 20 1 21 14 26 14 21 3 -3 -8 -1 -21 5 -29 8 -11
9 -11 5 2 -3 9 0 22 6 28 8 8 8 11 -1 11 -7 0 -12 4 -12 9 0 11 43 9 52 -4 4
-5 4 -13 1 -18 -3 -4 -11 -1 -17 9 -12 15 -13 14 -10 -7 1 -13 3 -28 3 -34 1
-5 8 1 18 14 15 23 17 23 30 6 10 -14 13 -15 13 -4 0 8 9 15 21 16 17 2 18 -1
9 -13 -18 -21 -2 -17 22 6 24 22 38 19 18 -5 -7 -8 -8 -15 -2 -15 5 0 13 8 17
18 7 16 8 15 15 -3 8 -18 9 -17 7 6 -1 24 -26 34 -43 16 -10 -10 -26 -9 -20 1
3 5 -1 9 -9 9 -8 0 -15 -3 -15 -7 0 -4 -9 -7 -20 -6 -11 0 -20 6 -20 11 0 6
62 10 165 11 154 0 183 -4 153 -22 -7 -5 -8 -3 -3 6 5 9 4 11 -3 6 -17 -10
-15 -26 3 -26 8 0 15 5 15 10 0 6 13 4 30 -5 16 -9 30 -12 31 -8 0 5 5 -1 10
-12 9 -19 9 -18 5 2 -5 26 -5 26 28 13 20 -7 24 -6 19 6 -3 9 0 14 8 12 25 -5
28 -23 6 -34 -12 -7 -22 -22 -23 -38 0 -14 3 -23 7 -20 4 2 6 13 4 23 -2 12 5
22 21 29 17 8 22 16 17 29 -6 16 -5 16 11 4 12 -10 14 -17 6 -25 -5 -5 -10
-15 -10 -20 0 -6 7 0 16 12 8 12 20 19 26 16 6 -4 6 1 -1 14 -15 28 -14 40 1
19 10 -13 17 -14 28 -6 13 9 12 10 -3 5 -10 -3 -16 -2 -13 3 7 11 56 11 56 0
0 -5 -11 -15 -25 -21 -25 -11 -34 -28 -15 -28 6 0 10 5 10 11 0 21 23 3 27
-21 2 -13 6 -26 9 -29 8 -8 0 42 -9 56 -5 7 -4 13 2 13 5 0 12 -4 16 -10 7
-12 55 9 55 24 0 7 9 12 20 13 11 1 20 -3 20 -8 0 -6 -4 -8 -9 -4 -18 11 -22
-15 -6 -42 15 -25 14 -16 0 20 -4 8 1 14 10 14 9 0 14 -6 11 -12 -2 -7 0 -18
6 -26 8 -11 9 -11 5 2 -3 9 0 22 6 28 8 8 8 11 -1 11 -7 0 -12 3 -12 8 0 4 18
8 40 8 44 1 51 -9 18 -27 -17 -9 -20 -9 -15 3 3 8 0 15 -7 15 -7 0 -11 -10
-10 -21 1 -12 3 -25 3 -31 1 -5 6 -2 12 8 5 9 17 17 24 17 8 0 15 5 15 10 0 6
12 4 29 -4 16 -9 31 -12 35 -9 3 4 6 1 6 -5 0 -5 -6 -12 -13 -15 -9 -3 -9 -8
2 -18 8 -8 11 -9 7 -2 -3 6 -2 15 4 18 6 4 8 16 5 26 -6 18 -5 19 14 7 18 -11
23 -11 30 1 7 11 13 9 30 -8 13 -13 21 -16 21 -8 0 7 9 13 21 14 17 2 18 -1 9
-13 -18 -21 -2 -17 22 6 24 22 38 19 18 -5 -7 -8 -8 -15 -2 -15 5 0 13 8 17
18 7 16 8 15 15 -3 8 -18 9 -17 7 6 -1 24 -26 34 -43 16 -10 -10 -26 -9 -20 1
3 5 -1 9 -9 9 -8 0 -15 -3 -15 -7 0 -3 -9 -6 -20 -7 -11 -1 -18 2 -15 7 3 6
-1 7 -9 4 -9 -3 -16 -2 -16 3 0 13 373 12 382 -2 14 -19 8 -28 -9 -13 -23 18
-45 17 -50 -2 -4 -12 -3 -12 5 -2 7 11 10 11 15 -2 4 -10 1 -16 -7 -16 -8 0
-16 -7 -20 -15 -5 -13 -2 -13 19 1 16 10 22 21 18 32 -6 15 -5 15 11 3 12 -10
14 -17 6 -25 -5 -5 -10 -15 -10 -20 0 -6 7 0 16 12 8 12 20 19 26 16 6 -4 6 1
-1 14 -15 28 -14 40 2 19 9 -13 16 -14 27 -6 13 9 12 10 -3 5 -10 -3 -16 -2
-13 3 7 11 56 11 56 0 0 -5 -11 -15 -25 -21 -25 -11 -34 -28 -15 -28 6 0 10 5
10 11 0 20 23 3 27 -20 3 -21 1 -22 -14 -10 -17 13 -17 13 0 -7 9 -11 14 -24
10 -29 -5 -4 -3 -5 3 -2 12 7 13 55 1 74 -5 8 -1 11 13 10 11 -1 20 -5 20 -9
0 -5 11 -14 25 -20 24 -11 25 -12 8 -32 l-18 -21 23 20 c21 17 22 20 7 31 -11
8 -13 14 -5 19 6 4 8 14 5 24 -3 12 1 17 15 18 11 1 20 -3 20 -8 0 -6 -4 -7
-10 -4 -5 3 -10 1 -10 -5 0 -7 7 -9 16 -6 9 3 18 6 20 6 3 0 3 4 0 8 -2 4 6 8
20 8 13 0 24 -4 24 -8 0 -4 5 -8 11 -8 5 0 8 4 5 9 -8 12 37 8 46 -4 15 -20 7
-28 -11 -11 -19 17 -39 7 -27 -13 3 -5 -1 -11 -9 -15 -8 -3 -15 -10 -15 -16 0
-5 9 -2 19 7 11 9 17 23 13 32 -5 14 -4 14 12 2 12 -10 14 -17 6 -25 -5 -5
-10 -15 -10 -20 0 -6 7 0 16 12 8 12 20 19 26 16 6 -4 6 1 -1 14 -15 28 -14
40 1 19 10 -13 17 -14 28 -6 13 9 12 10 -3 5 -10 -3 -16 -2 -13 3 7 11 56 11
56 0 0 -5 -11 -15 -25 -21 -25 -11 -34 -28 -15 -28 6 0 10 5 10 11 0 18 23 4
26 -15 1 -10 8 -24 15 -30 9 -8 9 -6 0 11 -6 13 -9 23 -5 23 3 0 1 6 -6 14 -9
12 -8 15 9 13 12 -1 21 -5 21 -9 0 -4 15 -15 33 -23 23 -11 27 -12 15 -2 -10
8 -15 17 -11 21 4 4 0 4 -10 0 -21 -8 -22 -1 -2 16 12 10 18 6 36 -22 20 -31
21 -27 5 13 -5 10 -1 16 9 16 9 0 14 -6 11 -12 -2 -7 0 -18 6 -26 8 -11 9 -11
5 2 -3 9 0 22 6 28 8 8 8 11 -1 11 -7 0 -12 4 -12 9 0 11 43 9 52 -4 4 -5 4
-13 1 -18 -3 -4 -11 -1 -17 9 -12 15 -13 14 -10 -7 1 -13 3 -28 3 -34 1 -5 8
1 18 14 15 23 17 23 30 6 10 -14 13 -15 13 -4 0 8 9 15 21 16 17 2 18 -1 9
-13 -18 -21 -2 -17 22 6 24 22 38 19 18 -5 -7 -8 -8 -15 -2 -15 5 0 13 8 17
18 7 16 8 15 15 -3 8 -18 9 -17 7 6 -1 24 -26 34 -43 16 -10 -10 -26 -9 -20 1
3 5 -1 9 -9 9 -8 0 -15 -3 -15 -7 0 -4 -9 -7 -20 -6 -11 0 -20 6 -20 11 0 6
62 10 165 11 154 0 183 -4 153 -22 -7 -5 -8 -3 -3 6 5 9 4 11 -3 6 -17 -10
-15 -26 3 -26 8 0 15 5 15 10 0 6 13 4 30 -5 16 -9 30 -12 31 -8 0 5 5 -1 10
-12 9 -19 9 -18 5 3 -5 25 -5 25 28 12 20 -7 24 -6 19 6 -3 9 0 14 8 12 25 -5
28 -23 6 -34 -12 -7 -22 -22 -23 -38 0 -14 3 -23 7 -20 4 2 6 13 4 23 -2 12 5
22 21 29 17 8 22 16 17 29 -6 16 -5 16 11 4 12 -10 14 -17 6 -25 -5 -5 -10
-15 -10 -20 0 -6 7 0 16 12 8 12 20 19 26 16 6 -4 6 1 -1 14 -15 28 -14 40 2
19 9 -13 16 -14 27 -6 13 9 12 10 -3 5 -10 -3 -16 -2 -13 3 7 11 56 11 56 0 0
-5 -11 -15 -25 -21 -25 -11 -34 -28 -15 -28 6 0 10 5 10 11 0 21 23 3 27 -21
2 -13 6 -26 9 -29 8 -8 0 42 -9 57 -5 6 -4 12 2 12 5 0 12 -4 16 -10 7 -12 55
9 55 24 0 7 9 12 20 13 11 1 20 -3 20 -8 0 -6 -4 -8 -9 -4 -18 11 -22 -15 -6
-42 15 -25 14 -16 0 20 -4 8 1 14 10 14 9 0 14 -6 11 -12 -2 -7 0 -18 6 -26 8
-11 9 -11 5 2 -3 9 0 22 6 28 8 8 8 11 -1 11 -7 0 -12 3 -12 8 0 4 18 8 40 8
44 1 51 -9 18 -27 -17 -9 -20 -9 -15 3 3 8 0 15 -7 15 -7 0 -11 -10 -10 -21 1
-12 3 -25 3 -31 1 -5 6 -2 12 8 5 9 17 17 24 17 8 0 15 5 15 10 0 6 12 4 29
-4 16 -9 31 -12 35 -9 3 4 6 1 6 -5 0 -5 -6 -12 -12 -15 -10 -3 -10 -8 1 -18
8 -8 11 -9 7 -2 -3 6 -2 15 4 18 6 4 8 16 5 26 -6 18 -5 19 14 7 18 -11 23
-11 30 1 7 11 13 9 30 -8 13 -13 21 -16 21 -8 0 7 9 13 21 14 17 2 18 -1 9
-13 -18 -21 -2 -17 22 6 24 22 38 19 18 -5 -7 -8 -8 -15 -2 -15 5 0 13 8 17
18 7 16 8 15 15 -3 8 -18 9 -17 7 6 -1 24 -26 34 -43 16 -10 -10 -26 -9 -20 1
3 5 -1 9 -9 9 -8 0 -15 -3 -15 -7 0 -3 -9 -6 -20 -7 -11 -1 -18 2 -15 7 3 6
-1 7 -9 4 -9 -3 -16 -2 -16 3 0 13 373 12 382 -2 14 -19 8 -28 -10 -13 -22 18
-44 17 -49 -2 -4 -12 -3 -12 5 -2 7 11 10 11 15 -2 4 -10 1 -16 -7 -16 -8 0
-16 -7 -20 -15 -5 -13 -2 -13 19 1 16 10 22 21 18 32 -6 15 -5 15 11 3 12 -10
14 -17 6 -25 -5 -5 -10 -15 -10 -20 0 -6 7 0 16 12 8 12 20 19 26 16 6 -4 6 1
-1 14 -15 28 -14 40 2 19 9 -13 16 -14 27 -6 13 9 12 10 -3 5 -10 -3 -16 -2
-13 3 7 11 56 11 56 0 0 -5 -11 -15 -25 -21 -25 -11 -34 -28 -15 -28 6 0 10 5
10 11 0 20 23 3 27 -20 3 -21 1 -22 -14 -10 -17 13 -17 13 0 -7 9 -11 14 -24
10 -29 -5 -4 -3 -5 3 -2 12 7 13 55 1 74 -5 8 -1 11 13 10 11 -1 20 -5 20 -9
0 -5 11 -14 25 -20 24 -11 25 -12 8 -32 l-18 -21 23 20 c21 17 22 20 7 31 -11
8 -13 14 -5 19 6 4 8 14 5 24 -3 12 1 17 15 18 11 1 20 -3 20 -8 0 -6 -4 -7
-10 -4 -5 3 -10 1 -10 -5 0 -7 7 -9 16 -6 9 3 18 6 20 6 3 0 3 4 0 8 -2 4 6 8
20 8 13 0 24 -4 24 -8 0 -4 5 -8 11 -8 5 0 8 4 5 9 -8 12 37 8 46 -4 15 -20 7
-28 -11 -11 -19 17 -39 7 -27 -13 3 -5 -1 -11 -9 -15 -8 -3 -15 -10 -15 -16 0
-5 9 -2 19 7 11 9 17 23 13 32 -5 14 -4 14 12 2 12 -10 14 -17 6 -25 -5 -5
-10 -15 -10 -20 0 -6 7 0 16 12 8 12 20 19 26 16 6 -4 6 1 -1 14 -15 28 -14
40 2 19 9 -13 16 -14 27 -6 13 9 12 10 -3 5 -10 -3 -16 -2 -13 3 7 11 56 11
56 0 0 -5 -11 -15 -25 -21 -25 -11 -34 -28 -15 -28 6 0 10 5 10 11 0 18 23 4
26 -15 1 -10 8 -24 15 -30 9 -8 9 -6 0 12 -6 12 -9 22 -5 22 3 0 1 6 -6 14 -9
12 -8 15 9 13 12 -1 21 -5 21 -9 0 -4 15 -15 33 -23 23 -11 27 -12 15 -2 -10
8 -15 17 -11 21 4 4 -1 4 -12 0 -18 -7 -18 -6 -6 9 18 22 18 22 42 -16 20 -30
21 -26 5 14 -5 10 -1 16 9 16 9 0 14 -6 11 -12 -2 -7 0 -18 6 -26 8 -11 9 -11
5 2 -3 9 0 22 6 28 8 8 8 11 -1 11 -7 0 -12 4 -12 9 0 11 43 9 52 -4 4 -5 4
-13 1 -18 -3 -4 -11 -1 -17 9 -12 15 -13 14 -10 -7 1 -13 3 -28 3 -34 1 -5 8
1 18 14 15 23 17 23 30 6 10 -14 13 -15 13 -4 0 8 9 15 21 16 17 2 18 -1 9
-13 -18 -21 -2 -17 22 6 24 22 38 19 18 -5 -7 -8 -8 -15 -2 -15 5 0 13 8 17
18 7 16 8 15 15 -3 8 -18 9 -17 7 6 -1 24 -26 34 -43 16 -10 -10 -26 -9 -20 1
3 5 -1 9 -9 9 -8 0 -15 -3 -15 -7 0 -11 -40 -6 -43 5 -1 6 76 10 216 10 176 1
217 -2 217 -13 0 -7 -4 -11 -8 -8 -5 3 -16 -4 -25 -15 -9 -10 -12 -19 -7 -19
6 0 13 6 16 14 3 8 14 13 24 11 14 -3 16 1 12 17 -4 15 -1 19 9 16 8 -3 13
-11 11 -17 -1 -7 2 -10 8 -6 6 3 8 11 5 16 -4 5 1 9 9 9 13 0 16 12 16 55 0
30 1 921 1 1980 0 1059 -1 2017 -1 2130 l0 204 -127 3 -128 3 -2 30 c0 17 -2
67 -2 113 l-1 82 -2300 0 -2300 0 0 -112z m880 -4500 c0 -9 4 -8 10 2 9 13 10
13 10 0 0 -10 3 -11 8 -4 9 14 124 13 134 -1 14 -19 8 -28 -9 -13 -19 15 -50
18 -71 4 -7 -4 -19 -3 -26 3 -10 9 -15 8 -19 -4 -5 -12 -11 -13 -32 -3 -25 11
-34 28 -15 28 6 0 10 -6 10 -12z m310 1 c0 -12 -36 -30 -44 -22 -14 14 -4 31
19 31 14 0 25 -4 25 -9z m170 -1 c0 -9 4 -8 10 2 9 13 10 13 10 0 0 -9 3 -11
8 -5 9 14 62 18 62 5 0 -16 -21 -22 -35 -10 -12 10 -16 9 -21 -3 -5 -13 -10
-14 -30 -5 -24 11 -33 28 -14 28 6 0 10 -6 10 -12z m600 3 c0 -6 -4 -13 -10
-16 -5 -3 -10 1 -10 9 0 9 5 16 10 16 6 0 10 -4 10 -9z m34 -8 c9 -22 -12 -43
-23 -24 -10 15 -4 41 9 41 4 0 11 -8 14 -17z m313 3 c-5 -15 -47 -16 -47 -1 0
7 11 13 25 13 15 0 24 -5 22 -12z m53 6 c0 -4 -9 -8 -20 -9 -11 -1 -20 2 -20
5 0 4 9 8 20 9 11 1 20 -2 20 -5z m440 -4 c0 -9 4 -8 10 2 9 13 10 13 10 0 0
-10 3 -11 8 -4 9 14 124 13 134 -1 14 -19 8 -28 -9 -13 -19 15 -50 18 -71 4
-7 -4 -19 -3 -26 3 -10 9 -15 8 -19 -4 -5 -12 -11 -13 -32 -3 -25 11 -34 28
-15 28 6 0 10 -6 10 -12z m310 1 c0 -12 -36 -30 -44 -22 -14 14 -4 31 19 31
14 0 25 -4 25 -9z m170 -1 c0 -9 4 -8 10 2 9 13 10 13 10 0 0 -9 3 -11 8 -5 9
14 62 18 62 5 0 -16 -21 -22 -35 -10 -12 10 -16 9 -21 -3 -5 -13 -10 -14 -30
-5 -24 11 -33 28 -14 28 6 0 10 -6 10 -12z m600 3 c0 -6 -4 -13 -10 -16 -5 -3
-10 1 -10 9 0 9 5 16 10 16 6 0 10 -4 10 -9z m34 -8 c9 -22 -12 -43 -23 -24
-10 15 -4 41 9 41 4 0 11 -8 14 -17z m313 3 c-5 -15 -47 -16 -47 -1 0 7 11 13
25 13 15 0 24 -5 22 -12z m53 6 c0 -4 -9 -8 -20 -9 -11 -1 -20 2 -20 5 0 4 9
8 20 9 11 1 20 -2 20 -5z"/>
<path d="M146 582 c-2 -4 4 -8 14 -8 10 0 16 4 14 8 -3 4 -9 8 -14 8 -5 0 -11
-4 -14 -8z"/>
<path d="M186 498 c3 -4 9 -8 15 -8 5 0 9 4 9 8 0 5 -7 9 -15 9 -8 0 -12 -4
-9 -9z"/>
<path d="M250 491 c5 -11 14 -23 20 -26 5 -3 7 -13 4 -23 -5 -14 -4 -14 4 -3
7 10 4 22 -11 43 -24 32 -32 37 -17 9z"/>
<path d="M306 435 c4 -8 11 -15 16 -15 6 0 5 6 -2 15 -7 8 -14 15 -16 15 -2 0
-1 -7 2 -15z"/>
<path d="M290 398 c0 -6 3 -8 7 -5 3 4 13 1 22 -6 14 -11 14 -10 2 6 -15 20
-31 22 -31 5z"/>
<path d="M350 390 c-9 -6 -10 -10 -3 -10 6 0 15 5 18 10 8 12 4 12 -15 0z"/>
<path d="M803 393 c-7 -2 -13 -9 -13 -14 0 -6 4 -8 9 -4 6 3 14 -3 20 -12 8
-15 10 -15 11 -3 0 9 9 16 21 17 17 2 18 -1 9 -13 -18 -21 -2 -17 22 6 24 22
38 19 18 -5 -7 -8 -8 -15 -2 -15 5 0 13 8 17 18 7 16 8 15 15 -3 8 -18 9 -17
7 6 -1 24 -26 34 -43 16 -10 -10 -26 -9 -20 1 3 5 -1 9 -9 9 -8 0 -15 -3 -15
-7 0 -3 -9 -6 -20 -7 -11 -1 -18 2 -15 8 7 10 6 10 -12 2z"/>
<path d="M1763 393 c-7 -2 -13 -9 -13 -14 0 -6 4 -8 9 -4 6 3 14 -3 20 -12 8
-15 10 -15 11 -3 0 9 9 16 21 17 17 2 18 -1 9 -13 -18 -21 -2 -17 22 6 24 22
38 19 18 -5 -7 -8 -8 -15 -2 -15 5 0 13 8 17 18 7 16 8 15 15 -3 8 -18 9 -17
7 6 -1 24 -26 34 -43 16 -10 -10 -26 -9 -20 1 3 5 -1 9 -9 9 -8 0 -15 -3 -15
-7 0 -3 -9 -6 -20 -7 -11 -1 -18 2 -15 8 7 10 6 10 -12 2z"/>
<path d="M2185 380 c-10 -11 -22 -17 -26 -14 -5 3 -9 1 -9 -4 0 -5 9 -12 20
-15 11 -3 18 -1 14 4 -3 5 -2 14 2 20 4 8 11 4 18 -9 l11 -22 14 23 c13 21 13
21 -4 7 -17 -14 -18 -13 -12 2 9 26 -8 30 -28 8z"/>
<path d="M2723 393 c-7 -2 -13 -9 -13 -14 0 -6 4 -8 9 -4 6 3 14 -3 20 -12 8
-15 10 -15 11 -3 0 9 9 16 21 17 17 2 18 -1 9 -13 -18 -21 -2 -17 22 6 24 22
38 19 18 -5 -7 -8 -8 -15 -2 -15 5 0 13 8 17 18 7 16 8 15 15 -3 8 -18 9 -17
7 6 -1 24 -26 34 -43 16 -10 -10 -26 -9 -20 1 3 5 -1 9 -9 9 -8 0 -15 -3 -15
-7 0 -3 -9 -6 -20 -7 -11 -1 -18 2 -15 8 7 10 6 10 -12 2z"/>
<path d="M3683 393 c-7 -2 -13 -9 -13 -14 0 -6 4 -8 9 -4 6 3 14 -3 20 -12 8
-15 10 -15 11 -3 0 9 9 16 21 17 17 2 18 -1 9 -13 -18 -21 -2 -17 22 6 24 22
38 19 18 -5 -7 -8 -8 -15 -2 -15 5 0 13 8 17 18 7 16 8 15 15 -3 8 -18 9 -17
7 6 -1 24 -26 34 -43 16 -10 -10 -26 -9 -20 1 3 5 -1 9 -9 9 -8 0 -15 -3 -15
-7 0 -3 -9 -6 -20 -7 -11 -1 -18 2 -15 8 7 10 6 10 -12 2z"/>
<path d="M4105 380 c-10 -11 -22 -17 -26 -14 -5 3 -9 1 -9 -4 0 -5 9 -12 20
-15 11 -3 18 -1 14 4 -3 5 -2 14 2 20 4 8 11 4 18 -9 l11 -22 14 23 c13 21 13
21 -4 7 -17 -14 -18 -13 -12 2 9 26 -8 30 -28 8z"/>
<path d="M4643 393 c-7 -2 -13 -9 -13 -14 0 -6 4 -8 9 -4 6 3 14 -3 20 -12 8
-15 10 -15 11 -3 0 9 9 16 21 17 17 2 18 -1 9 -13 -18 -21 -2 -17 22 6 24 22
38 19 18 -5 -9 -11 -9 -15 -1 -15 7 0 9 -5 5 -12 -4 -7 -3 -8 4 -4 6 4 9 13 6
20 -3 8 -1 17 5 21 6 3 11 -2 11 -12 1 -17 1 -17 11 -1 5 10 16 15 24 12 8 -4
15 -1 15 4 0 16 -18 24 -25 12 -3 -5 -11 -10 -16 -10 -6 0 -8 4 -5 8 6 10 -30
9 -40 -1 -10 -10 -26 -9 -20 1 3 5 -1 9 -9 9 -8 0 -15 -3 -15 -7 0 -3 -9 -6
-20 -7 -11 -1 -18 2 -15 8 7 10 6 10 -12 2z"/>
<path d="M4830 390 c0 -5 5 -10 11 -10 5 0 7 5 4 10 -3 6 -8 10 -11 10 -2 0
-4 -4 -4 -10z"/>
<path d="M4867 383 c3 -7 6 -13 8 -13 2 0 5 6 8 13 3 8 -1 14 -8 14 -7 0 -11
-6 -8 -14z"/>
<path d="M994 361 c3 -5 0 -11 -7 -14 -13 -5 -17 -41 -5 -52 3 -3 5 5 4 17 -1
13 7 28 17 34 18 10 18 12 3 17 -10 4 -15 3 -12 -2z"/>
<path d="M1312 362 c-9 -6 -5 -12 15 -20 24 -11 26 -10 11 1 -10 8 -15 17 -11
20 9 9 1 8 -15 -1z"/>
<path d="M1473 364 c4 -4 -1 -12 -10 -19 -13 -10 -14 -13 -2 -20 8 -5 10 -4 6
0 -4 5 2 14 14 20 20 11 20 12 3 19 -10 4 -15 4 -11 0z"/>
<path d="M1594 361 c4 -5 1 -11 -6 -13 -7 -3 -3 -7 10 -10 19 -5 20 -4 11 13
-5 10 -12 19 -15 19 -3 0 -3 -4 0 -9z"/>
<path d="M2914 361 c3 -5 0 -11 -7 -14 -13 -5 -17 -41 -5 -52 3 -3 5 5 4 17
-1 13 7 28 17 34 18 10 18 12 3 17 -10 4 -15 3 -12 -2z"/>
<path d="M3232 362 c-9 -6 -5 -12 15 -20 24 -11 26 -10 11 1 -10 8 -15 17 -11
20 9 9 1 8 -15 -1z"/>
<path d="M3393 364 c4 -4 -1 -12 -10 -19 -13 -10 -14 -13 -2 -20 8 -5 10 -4 6
0 -4 5 2 14 14 20 20 11 20 12 3 19 -10 4 -15 4 -11 0z"/>
<path d="M3514 361 c4 -5 1 -11 -6 -13 -7 -3 -3 -7 10 -10 19 -5 20 -4 11 13
-5 10 -12 19 -15 19 -3 0 -3 -4 0 -9z"/>
<path d="M4838 363 c7 -3 16 -2 19 1 4 3 -2 6 -13 5 -11 0 -14 -3 -6 -6z"/>
<path d="M370 351 c0 -6 4 -13 10 -16 6 -3 7 1 4 9 -7 18 -14 21 -14 7z"/>
<path d="M556 347 c3 -10 9 -15 12 -12 3 3 0 11 -7 18 -10 9 -11 8 -5 -6z"/>
<path d="M637 353 c-11 -11 -8 -20 7 -20 8 0 12 6 9 14 -6 15 -7 15 -16 6z"/>
<path d="M787 347 c-3 -7 3 -13 13 -13 10 0 16 6 13 13 -3 7 -9 13 -13 13 -4
0 -10 -6 -13 -13z"/>
<path d="M946 344 c-5 -14 -4 -15 9 -4 17 14 19 20 6 20 -5 0 -12 -7 -15 -16z"/>
<path d="M1075 349 c-4 -6 -5 -12 -2 -15 2 -3 7 2 10 11 7 17 1 20 -8 4z"/>
<path d="M1435 349 c-4 -6 -5 -12 -2 -15 2 -3 7 2 10 11 7 17 1 20 -8 4z"/>
<path d="M1747 347 c-3 -7 3 -13 13 -13 10 0 16 6 13 13 -3 7 -9 13 -13 13 -4
0 -10 -6 -13 -13z"/>
<path d="M2557 353 c-11 -11 -8 -20 7 -20 8 0 12 6 9 14 -6 15 -7 15 -16 6z"/>
<path d="M2707 347 c-3 -7 3 -13 13 -13 10 0 16 6 13 13 -3 7 -9 13 -13 13 -4
0 -10 -6 -13 -13z"/>
<path d="M2866 344 c-5 -14 -4 -15 9 -4 17 14 19 20 6 20 -5 0 -12 -7 -15 -16z"/>
<path d="M2995 349 c-4 -6 -5 -12 -2 -15 2 -3 7 2 10 11 7 17 1 20 -8 4z"/>
<path d="M3355 349 c-4 -6 -5 -12 -2 -15 2 -3 7 2 10 11 7 17 1 20 -8 4z"/>
<path d="M3667 347 c-3 -7 3 -13 13 -13 10 0 16 6 13 13 -3 7 -9 13 -13 13 -4
0 -10 -6 -13 -13z"/>
<path d="M4477 353 c-11 -11 -8 -20 7 -20 8 0 12 6 9 14 -6 15 -7 15 -16 6z"/>
<path d="M4627 347 c-3 -7 3 -13 13 -13 10 0 16 6 13 13 -3 7 -9 13 -13 13 -4
0 -10 -6 -13 -13z"/>
<path d="M4790 352 c0 -5 7 -9 15 -9 8 0 12 4 9 9 -3 4 -9 8 -15 8 -5 0 -9 -4
-9 -8z"/>
<path d="M435 341 c-3 -5 -2 -12 3 -15 5 -3 9 1 9 9 0 17 -3 19 -12 6z"/>
<path d="M520 346 c0 -2 7 -7 16 -10 8 -3 12 -2 9 4 -6 10 -25 14 -25 6z"/>
<path d="M1030 341 c0 -6 4 -13 10 -16 6 -3 7 1 4 9 -7 18 -14 21 -14 7z"/>
<path d="M1176 341 c-3 -5 0 -14 8 -20 10 -9 15 -8 19 3 4 11 1 13 -10 9 -11
-4 -14 -2 -9 5 4 7 5 12 2 12 -3 0 -7 -4 -10 -9z"/>
<path d="M1975 341 c-9 -15 15 -25 28 -12 9 9 7 10 -7 5 -13 -5 -17 -4 -12 4
4 7 5 12 2 12 -3 0 -7 -4 -11 -9z"/>
<path d="M2299 348 c-6 -16 -4 -56 3 -52 5 3 7 8 4 12 -3 3 2 11 12 19 16 12
16 13 -2 6 -13 -4 -17 -3 -12 5 4 7 5 12 2 12 -3 0 -6 -1 -7 -2z"/>
<path d="M2950 341 c0 -6 4 -13 10 -16 6 -3 7 1 4 9 -7 18 -14 21 -14 7z"/>
<path d="M3096 341 c-3 -5 0 -14 8 -20 10 -9 15 -8 19 3 4 11 1 13 -10 9 -11
-4 -14 -2 -9 5 4 7 5 12 2 12 -3 0 -7 -4 -10 -9z"/>
<path d="M3895 341 c-9 -15 15 -25 28 -12 9 9 7 10 -7 5 -13 -5 -17 -4 -12 4
4 7 5 12 2 12 -3 0 -7 -4 -11 -9z"/>
<path d="M4219 348 c-6 -16 -4 -56 3 -52 5 3 7 8 4 12 -3 3 2 11 12 19 16 12
16 13 -2 6 -13 -4 -17 -3 -12 5 4 7 5 12 2 12 -3 0 -6 -1 -7 -2z"/>
<path d="M4907 339 c7 -7 15 -10 18 -7 3 3 -2 9 -12 12 -14 6 -15 5 -6 -5z"/>
<path d="M678 333 c7 -3 16 -2 19 1 4 3 -2 6 -13 5 -11 0 -14 -3 -6 -6z"/>
<path d="M752 326 c7 -8 15 -12 17 -11 5 6 -10 25 -20 25 -5 0 -4 -6 3 -14z"/>
<path d="M838 333 c7 -3 16 -2 19 1 4 3 -2 6 -13 5 -11 0 -14 -3 -6 -6z"/>
<path d="M912 326 c7 -8 15 -12 17 -11 5 6 -10 25 -20 25 -5 0 -4 -6 3 -14z"/>
<path d="M1236 327 c3 -10 9 -15 12 -12 3 3 0 11 -7 18 -10 9 -11 8 -5 -6z"/>
<path d="M1638 333 c7 -3 16 -2 19 1 4 3 -2 6 -13 5 -11 0 -14 -3 -6 -6z"/>
<path d="M1712 326 c7 -8 15 -12 17 -11 5 6 -10 25 -20 25 -5 0 -4 -6 3 -14z"/>
<path d="M1798 333 c7 -3 16 -2 19 1 4 3 -2 6 -13 5 -11 0 -14 -3 -6 -6z"/>
<path d="M1872 326 c7 -8 15 -12 17 -11 5 6 -10 25 -20 25 -5 0 -4 -6 3 -14z"/>
<path d="M2354 320 c0 -13 4 -16 10 -10 7 7 7 13 0 20 -6 6 -10 3 -10 -10z"/>
<path d="M2598 333 c7 -3 16 -2 19 1 4 3 -2 6 -13 5 -11 0 -14 -3 -6 -6z"/>
<path d="M2672 326 c7 -8 15 -12 17 -11 5 6 -10 25 -20 25 -5 0 -4 -6 3 -14z"/>
<path d="M2758 333 c7 -3 16 -2 19 1 4 3 -2 6 -13 5 -11 0 -14 -3 -6 -6z"/>
<path d="M2832 326 c7 -8 15 -12 17 -11 5 6 -10 25 -20 25 -5 0 -4 -6 3 -14z"/>
<path d="M3156 327 c3 -10 9 -15 12 -12 3 3 0 11 -7 18 -10 9 -11 8 -5 -6z"/>
<path d="M3558 333 c7 -3 16 -2 19 1 4 3 -2 6 -13 5 -11 0 -14 -3 -6 -6z"/>
<path d="M3632 326 c7 -8 15 -12 17 -11 5 6 -10 25 -20 25 -5 0 -4 -6 3 -14z"/>
<path d="M3718 333 c7 -3 16 -2 19 1 4 3 -2 6 -13 5 -11 0 -14 -3 -6 -6z"/>
<path d="M3792 326 c7 -8 15 -12 17 -11 5 6 -10 25 -20 25 -5 0 -4 -6 3 -14z"/>
<path d="M4274 320 c0 -13 4 -16 10 -10 7 7 7 13 0 20 -6 6 -10 3 -10 -10z"/>
<path d="M4518 333 c7 -3 16 -2 19 1 4 3 -2 6 -13 5 -11 0 -14 -3 -6 -6z"/>
<path d="M4592 326 c7 -8 15 -12 17 -11 5 6 -10 25 -20 25 -5 0 -4 -6 3 -14z"/>
<path d="M4678 333 c7 -3 16 -2 19 1 4 3 -2 6 -13 5 -11 0 -14 -3 -6 -6z"/>
<path d="M499 328 c-5 -18 -6 -38 -1 -34 7 8 12 36 6 36 -2 0 -4 -1 -5 -2z"/>
<path d="M609 317 c6 -8 7 -18 3 -22 -4 -5 -1 -5 6 -1 10 6 10 11 1 22 -6 8
-14 14 -16 14 -3 0 0 -6 6 -13z"/>
<path d="M1329 317 c6 -8 7 -18 3 -22 -4 -5 -1 -5 6 -1 10 6 10 11 1 22 -6 8
-14 14 -16 14 -3 0 0 -6 6 -13z"/>
<path d="M1396 313 c-6 -14 -5 -15 5 -6 7 7 10 15 7 18 -3 3 -9 -2 -12 -12z"/>
<path d="M1573 310 c1 -21 10 -18 13 5 1 8 -2 15 -6 15 -5 0 -8 -9 -7 -20z"/>
<path d="M2194 322 c4 -3 14 -7 22 -8 9 -1 13 0 10 4 -4 3 -14 7 -22 8 -9 1
-13 0 -10 -4z"/>
<path d="M2529 317 c6 -8 7 -18 3 -22 -4 -5 -1 -5 6 -1 10 6 10 11 1 22 -6 8
-14 14 -16 14 -3 0 0 -6 6 -13z"/>
<path d="M3249 317 c6 -8 7 -18 3 -22 -4 -5 -1 -5 6 -1 10 6 10 11 1 22 -6 8
-14 14 -16 14 -3 0 0 -6 6 -13z"/>
<path d="M3316 313 c-6 -14 -5 -15 5 -6 7 7 10 15 7 18 -3 3 -9 -2 -12 -12z"/>
<path d="M3493 310 c1 -21 10 -18 13 5 1 8 -2 15 -6 15 -5 0 -8 -9 -7 -20z"/>
<path d="M4114 322 c4 -3 14 -7 22 -8 9 -1 13 0 10 4 -4 3 -14 7 -22 8 -9 1
-13 0 -10 -4z"/>
<path d="M4449 317 c6 -8 7 -18 3 -22 -4 -5 -1 -5 6 -1 10 6 10 11 1 22 -6 8
-14 14 -16 14 -3 0 0 -6 6 -13z"/>
<path d="M4810 326 c0 -2 7 -7 16 -10 8 -3 12 -2 9 4 -6 10 -25 14 -25 6z"/>
<path d="M1933 305 c0 -8 4 -12 9 -9 5 3 6 10 3 15 -9 13 -12 11 -12 -6z"/>
<path d="M3853 305 c0 -8 4 -12 9 -9 5 3 6 10 3 15 -9 13 -12 11 -12 -6z"/>
<path d="M525 300 c-3 -6 1 -7 9 -4 18 7 21 14 7 14 -6 0 -13 -4 -16 -10z"/>
<path d="M1965 300 c-3 -6 1 -7 9 -4 18 7 21 14 7 14 -6 0 -13 -4 -16 -10z"/>
<path d="M3885 300 c-3 -6 1 -7 9 -4 18 7 21 14 7 14 -6 0 -13 -4 -16 -10z"/>
</g>
</svg>
